<?xml version="1.0" encoding="UTF-8" standalone="no"?>
<!-- Created with Inkscape (http://www.inkscape.org/) -->

<svg
   version="1.1"
   id="svg1"
   width="2000"
   height="2000"
   viewBox="0 0 2000.0001 2000.0001"
   sodipodi:docname="5-SCEAU-color.svg"
   inkscape:version="1.4.4 (dcaf3e7, 2026-05-05)"
   inkscape:export-filename="5-SCEAU-color.png"
   inkscape:export-xdpi="96"
   inkscape:export-ydpi="96"
   xml:space="preserve"
   xmlns:inkscape="http://www.inkscape.org/namespaces/inkscape"
   xmlns:sodipodi="http://sodipodi.sourceforge.net/DTD/sodipodi-0.dtd"
   xmlns="http://www.w3.org/2000/svg"
   xmlns:svg="http://www.w3.org/2000/svg"><defs
     id="defs1" /><sodipodi:namedview
     id="namedview1"
     pagecolor="#e4e5d7"
     bordercolor="#000000"
     borderopacity="0.25"
     inkscape:showpageshadow="2"
     inkscape:pageopacity="0.0"
     inkscape:pagecheckerboard="0"
     inkscape:deskcolor="#d1d1d1"
     inkscape:zoom="0.35355339"
     inkscape:cx="939.03781"
     inkscape:cy="1059.246"
     inkscape:window-width="1920"
     inkscape:window-height="1013"
     inkscape:window-x="-9"
     inkscape:window-y="-9"
     inkscape:window-maximized="1"
     inkscape:current-layer="g1"><inkscape:page
       x="0"
       y="0"
       width="2000.0001"
       height="2000.0001"
       id="page2"
       margin="0"
       bleed="0" /></sodipodi:namedview><path
     style="display:none;fill:#42221a;stroke:none;stroke-width:2.30591"
     d="M 949.86363,0.19894081 C 893.09323,4.2003908 834.31953,9.5761608 777.04623,23.049371 585.71103,68.060001 405.63983,168.09971 271.21473,311.33547 c -375.3292,399.92928 -362.214504,1047.36123 46.2903,1420.44983 124.0294,113.2762 270.2939,190.3204 431.7671,235.7995 121.2366,34.147 251.99317,39.4976 376.49487,24.519 462.1974,-55.6048 852.7584,-463.3531 873.2226,-927.245 C 2019.3324,603.74077 1730.8626,173.82398 1280.0679,39.577321 1178.2137,9.2450508 1060.7215,-1.6512892 949.86363,0.19894081 m 24.6882,55.60847019 c 116.77857,-4.97118 235.99827,16.46307 345.63437,56.263389 108.2479,39.2963 209.9338,98.57509 296.2585,174.60618 288.8642,254.41845 402.7674,666.44629 272.5198,1029.35602 -40.0797,111.6752 -103.7404,213.4427 -181.2609,303.2471 -69.4506,80.4561 -156.17,148.3443 -248.6461,200.8551 -140.9621,80.0435 -295.5996,116.9668 -456.7315,123.7133 -114.30727,4.786 -237.04207,-24.4922 -342.54857,-66.0457 -111.1415,-43.7733 -214.8002,-107.3226 -302.4303,-188.3455 C -8.1187743,1351.5476 -45.296374,775.50146 274.27463,394.03924 348.69013,305.2117 440.78673,229.4272 542.50853,173.0681 675.83723,99.197141 822.65813,62.273331 974.55183,55.807411 m -15.4302,27.0953 c -61.18,7.97335 -121.7698,10.98224 -182.0754,25.946629 -183.9923,45.65639 -354.6681,150.28739 -476.9786,294.37922 C 67.136226,677.64132 10.239526,1081.7216 173.01923,1404.8629 c 71.4487,141.836 180.0002,262.7745 310.8549,353.1125 91.2046,62.9646 194.9822,106.8778 302.4302,133.5329 108.2849,26.8632 222.77107,32.3282 333.29047,17.9039 311.0008,-40.5907 592.9292,-254.1616 719.47,-538.2433 59.7612,-134.1642 83.0472,-279.6865 76.6023,-425.77125 C 1898.5268,556.86003 1609.8517,216.90615 1236.8636,113.99703 1151.8803,90.549621 1047.4008,71.397571 959.12163,82.902711 m 18.5162,21.845919 c 117.95157,-2.68151 242.93497,17.02449 351.80647,63.48143 130.1136,55.52116 248.2435,134.55736 341.6558,241.1247 285.7299,325.96878 299.6317,838.30944 9.6698,1167.04204 -83.8059,95.0116 -182.0325,170.976 -295.777,227.4257 -115.8359,57.4879 -244.0737,87.9467 -373.409,91.0919 -109.72167,2.668 -221.60137,-20.0964 -324.03227,-58.0004 -103.2036,-38.1901 -198.1644,-95.9178 -280.8281,-168.1491 C 32.025826,1341.3553 6.2272257,759.62456 339.35493,394.03924 c 74.9257,-82.22589 168.1475,-150.44313 267.9601,-199.8579 114.8223,-56.84557 242.4286,-86.52535 370.3228,-89.43271 M 820.25063,225.5686 h 6.172 c 11.6354,-21.54696 19.5276,-36.11519 46.2904,-36.75719 l 14.6991,122.47921 -11.6131,30.67586 67.8925,-12.2524 v -6.12622 c -33.0604,-16.51352 -27.8346,-62.27722 -31.3722,-94.95613 -1.2168,-11.24154 -7.5592,-28.2075 -3.5218,-39.12076 10.2161,-27.6141 41.0087,6.22715 47.2381,17.67904 h 6.1721 c 3.3502,-11.57378 4.2987,-37.85916 -7.9127,-45.58721 -11.4101,-7.22085 -41.0364,2.68023 -53.8078,4.46698 -44.2044,6.18432 -97.8921,0.21249 -80.2366,59.49882 M 1014.67,170.43279 c 25.7509,14.46989 9.4556,105.26813 1.7479,131.57876 -2.7039,9.22971 -8.7298,12.43433 -17.17787,15.45013 5.24327,15.68157 19.87117,11.44193 33.94617,12.77231 29.3655,2.77577 60.827,4.95493 89.4947,11.73249 l 9.2581,-45.94653 -27.8193,20.89339 -55.5032,-2.51478 6.1719,-61.26201 52.4622,24.50479 c 1.989,-15.61951 12.7024,-45.79361 -6.172,-52.07274 -10.6202,18.055 -24.8889,13.03094 -43.2042,12.25242 0.1124,-13.52354 -1.4726,-39.68087 6.2577,-51.09663 17.7111,-26.15453 53.532,12.15276 61.6349,26.59181 h 6.172 c 15.4277,-50.39519 -21.9389,-44.74366 -61.7207,-49.87226 -16.4168,-2.11635 -49.0428,-12.45094 -55.5483,6.98885 m 185.1614,15.31548 c 13.2984,53.31584 -22.9884,97.186 -30.8601,150.09203 -10.523,0.80408 -15.1251,2.07892 -18.5163,12.2524 33.3349,7.65476 73.9828,33.01752 107.8775,32.59741 17.7461,-0.21984 27.47,-27.73617 24.8215,-41.78671 -10.4237,5.33781 -19.6203,15.57857 -30.8602,18.88451 -12.4563,3.66379 -43.2588,-4.67655 -45.926,-19.2059 -1.8605,-10.13363 4.7595,-23.88672 7.8745,-33.37276 7.8764,-23.98525 15.5209,-92.3928 47.3097,-88.82995 l 3.0859,-12.2524 -64.8065,-18.37863 m -518.45187,217.48029 49.3764,-15.31552 -18.5161,-12.2524 v -42.88346 c 26.1997,-4.4748 87.4273,-22.47298 67.8925,30.63103 l 3.086,3.06311 61.7205,-21.44172 v -6.1262 c -39.011,-15.75784 -66.5331,-57.69811 -93.4165,-88.82999 -10.1088,-11.70628 -24.8972,-36.77253 -42.2328,-37.36706 -19.4059,-0.66557 -15.5236,28.09012 -15.5635,40.4302 -0.1199,37.0064 4.148,76.654 -0.8977,113.33477 -1.8158,13.20046 -9.4379,23.85587 -11.4488,36.75724 M 1366.4767,247.01033 c -6.6588,40.24319 -19.2778,70.17542 -41.3422,107.20855 -8.7695,14.71914 -13.2307,31.25214 -32.7223,30.63105 -3.1863,21.2228 37.6384,36.39246 55.5485,39.82032 l -9.2582,-18.3786 c 16.7855,-31.24502 43.7064,-121.23652 83.3226,-122.5241 -6.2331,-19.78716 -36.6854,-31.36369 -55.5484,-36.75722 m -651.15087,12.25238 37.0323,42.88347 -40.1183,15.3155 3.086,-58.19897 m 654.23697,168.47065 c -2.9692,19.96065 23.0754,31.86588 37.0321,42.89519 31.9339,25.23545 62.2368,60.25531 89.4951,9.17755 -13.4152,-3.25378 -23.9027,4.28302 -37.0325,2.69664 -60.5171,-7.31131 -24.213,-53.08173 -6.1721,-79.27418 h 3.0862 l 24.6881,45.94652 33.9462,-39.82032 -52.4625,-18.37865 v -3.06307 c 11.9898,-9.68757 20.004,-30.03088 33.601,-36.68881 29.1761,-14.28612 36.7807,44.86611 40.4634,58.13053 52.0083,-26.39237 -5.4193,-62.50665 -30.86,-81.55754 -8.4198,-6.30496 -22.163,-21.52211 -33.3558,-21.54099 -7.6082,-0.0136 -8.4306,25.97766 -13.1154,32.64717 -17.5276,24.95071 -55.7421,92.50666 -89.3138,88.82996 M 530.16443,360.34511 c 8.7573,-60.34465 -71.3565,-20.60977 -85.1204,9.19175 -3.577,7.74507 -4.6054,16.04481 -4.229,24.50238 2.9274,65.77408 71.7529,31.64938 107.8656,32.32559 10.1208,0.18946 19.9089,7.56297 23.8452,16.73132 14.1219,32.89287 -34.8427,41.44294 -54.6911,34.34419 -4.8385,-1.73046 -14.3414,-4.24298 -15.6993,3.35364 -2.7983,15.6554 20.7688,30.84847 34.2011,27.63184 27.2708,-6.53039 56.9002,-31.74509 63.1706,-59.25074 1.8601,-8.15973 1.5263,-16.4741 -0.8001,-24.50483 -19.964,-68.91661 -82.4826,-3.92384 -120.6692,-25.05558 -23.1825,-12.8288 -7.4742,-40.93739 12.0107,-47.47322 13.6229,-4.56941 27.2949,4.56565 40.1159,8.20366 m 425.8712,25.80471 c -122.1564,15.92764 -234.5577,49.07547 -333.2905,125.85198 -323.6631,251.68644 -318.0713,763.566 27.7742,994.9551 54.3998,36.3964 115.4827,67.0356 178.9894,84.29 81.152,22.048 166.4467,28.2866 249.96787,17.9718 87.4672,-10.8017 172.4439,-42.371 246.8817,-88.9385 64.3237,-40.2404 121.1231,-91.2086 166.1666,-152.1744 186.5191,-252.4522 152.5501,-615.48226 -82.8437,-826.51774 -63.959,-57.34022 -140.627,-100.16195 -222.1939,-127.12811 -70.6019,-23.34098 -157.0488,-38.0113 -231.45167,-28.31013 m 21.6022,21.38266 c 65.88967,-5.54683 134.85757,8.43267 197.50537,27.18503 66.867,20.01524 130.3339,53.60445 185.1615,96.561 271.7471,212.90973 303.1635,607.56559 78.0197,864.39519 -42.2063,48.1457 -92.9179,87.9762 -148.9984,119.0331 -70.151,38.8493 -148.0354,65.7729 -228.3658,73.422 -81.22887,7.7354 -162.59707,0.055 -240.70957,-24.0624 -66.1641,-20.4299 -130.7102,-54.564 -185.1614,-96.9061 -323.3385,-251.4341 -292.8154,-754.84017 52.4624,-971.87565 88.6965,-55.75298 186.8547,-79.06185 290.0862,-87.75217 m 629.54877,20.20088 c 0.3935,8.38746 1.4402,16.16338 -4.3436,23.08431 -19.8516,23.75439 -85.4341,83.29156 -116.0114,71.87187 -4.0452,21.7829 20.0033,43.12873 33.9463,58.19891 h 3.0861 l 43.2041,-58.19891 h 3.0863 c 16.3994,43.05729 -53.6872,98.11556 9.2581,128.65029 l 21.6019,-91.89306 c 9.1922,2.89221 18.0512,5.65262 27.7743,5.99157 90.6551,3.16092 28.3599,-123.74717 -21.6021,-137.70498 M 298.71273,534.94196 c 37.9691,-2.5333 125.2977,61.42319 123.4409,101.08234 16.5011,-2.76883 25.0964,-18.35056 35.1464,-30.63101 20.6617,-25.24725 82.5579,-87.55287 14.23,-98.01928 1.5657,17.82224 9.3796,79.09644 -27.7861,73.75543 -15.7628,-2.26514 -31.5951,-23.61206 -46.2785,-30.87199 7.1828,-8.15989 14.2129,-19.27956 23.8524,-24.73889 4.9593,-2.80884 15.9338,-0.78784 18.2971,-7.029 4.481,-11.83346 -24.9483,-27.63091 -32.8914,-32.55726 l -18.5161,52.07273 c -11.5056,-8.80849 -34.6748,-19.81816 -39.7564,-33.96818 -10.5736,-29.4431 40.4187,-39.54421 58.2725,-39.54626 -30.2559,-61.59165 -98.4621,35.65902 -108.0108,70.45137 m 188.2474,358.38295 c 29.8106,-11.81435 32.4914,-64.68898 44.0806,-91.89308 28.5425,-67.00029 69.5584,-127.23371 122.5646,-177.53933 85.6506,-81.28664 207.8887,-135.01635 327.1185,-137.91533 43.19057,-1.05014 87.66227,3.78104 129.61297,14.12665 9.0966,2.24351 35.9075,13.25509 42.6615,2.52414 8.1894,-13.01204 -47.1539,-22.10467 -55.0057,-23.89015 -58.2468,-13.24531 -123.24827,-13.23112 -182.07527,-4.2166 -163.2765,25.01986 -303.8038,127.04675 -380.4976,271.77481 -23.5534,44.44749 -46.2597,96.18183 -48.4596,147.02889 M 1638.0469,473.6799 c 6.9202,13.12621 16.0418,27.52492 10.0508,42.83613 -13.5008,34.50534 -54.1487,20.52451 -65.5993,-6.07889 l 55.5485,-36.75724 m -425.8713,44.22821 c -74.416,11.53654 -123.1345,68.67675 -158.6873,130.36863 -60.91317,105.69778 -88.20677,230.29467 -151.00327,333.86634 -16.2624,26.82182 -45.1492,51.93972 -65.4947,76.58932 -51.8223,62.786 -105.4949,124.0585 -157.2681,186.8494 -18.1257,21.9826 -20.2935,44.515 -33.8295,67.3881 -10.0978,17.0637 -29.6669,28.9554 -34.2749,49.0098 -5.6595,24.6304 9.1483,49.0215 35.8155,48.8938 27.8164,-0.1349 36.3681,-28.7781 53.8935,-44.869 12.43,-11.4128 31.4855,-11.6131 44.814,-23.0582 28.5434,-24.5106 50.2878,-59.428 74.3598,-88.1754 56.8493,-67.8902 108.2628,-159.2967 178.7394,-213.1054 112.05077,-85.54997 267.33227,-147.05506 344.19377,-270.86467 22.7931,-36.71498 37.6314,-82.12158 31.3745,-125.58722 -10.5577,-73.34395 -86.0079,-139.18457 -162.6327,-127.3055 m 24.688,13.97073 c -8.7196,10.05809 -27.7677,9.67968 -40.1184,14.94441 -22.9256,9.77279 -43.891,26.26784 -61.7082,43.37513 -68.1986,65.48036 -115.1568,168.12362 -151.22717,254.11687 -4.606,-27.31979 30.00247,-79.38635 42.44237,-104.14545 48.309,-96.14767 91.3927,-193.32354 210.6114,-208.29096 M 567.19673,868.8201 c 22.6209,-1.71141 23.8554,-18.69458 31.308,-36.75725 12.3578,-29.95181 28.4809,-59.25935 47.1951,-85.76683 65.9563,-93.42371 167.1158,-155.88674 279.4756,-177.65769 37.4671,-7.25975 76.42607,-8.1979 114.18287,-3.06538 16.7266,2.27378 34.1309,7.32407 40.1183,-12.2524 C 863.20273,512.87412 614.08843,643.92286 567.19673,868.8201 M 1258.466,547.19435 v 3.0631 c -111.2185,49.17661 -176.9129,161.66651 -234.1069,263.42678 -22.4932,40.02001 -47.47317,80.17351 -65.23747,122.5241 h -3.086 c 13.6231,-46.9376 42.034,-94.14533 64.04467,-137.83961 39.3388,-78.09358 83.0343,-179.64855 161.2351,-226.89408 25.0636,-15.14239 49.5195,-17.73288 77.1506,-24.28029 m 27.7743,12.25242 v 3.0631 c -74.1841,48.77237 -129.8448,121.8284 -181.1803,192.97546 -54.0614,74.92485 -106.71417,151.12079 -155.19637,229.73263 -0.3683,-34.30938 43.4701,-86.57301 60.41077,-116.39786 43.5437,-76.66057 87.5159,-151.7866 143.269,-220.54336 32.8101,-40.46293 78.8509,-81.59773 132.6969,-88.82997 m 21.6019,12.2524 c -13.8566,48.4501 -44.1559,88.91746 -74.4645,128.6503 -57.4035,75.25294 -124.1865,144.31745 -190.9216,211.35405 -34.2004,34.355 -63.53317,81.09801 -101.85057,110.27178 18.3776,-36.66759 47.0356,-70.0293 69.94987,-104.14559 54.2353,-80.74854 110.1937,-160.09045 171.3767,-235.85886 31.8705,-39.4683 73.9812,-97.24841 125.9101,-110.27168 m 12.344,15.31552 c 0,138.8415 -139.0426,241.87307 -234.5375,325.16389 -37.5113,32.71747 -73.5171,72.17434 -114.18297,100.60732 34.77877,-59.71928 100.63097,-108.96412 147.85297,-159.28134 79.1784,-84.36801 145.574,-165.66513 200.8675,-266.48987 m 416.6132,116.39786 3.0862,3.06313 c 10.1457,-2.8999 27.7711,-7.36239 33.7392,-16.84241 15.2944,-24.29466 -20.9941,-73.91527 -42.9999,-80.9972 -6.9099,-2.22368 -14.3422,-3.45929 -21.5996,-2.54562 -41.1244,5.17665 -40.0654,47.50799 -40.1183,78.9435 -0.024,15.10276 -0.4288,35.62148 -18.5637,40.8555 -38.8775,11.22081 -31.4864,-45.31892 -21.9354,-62.28299 2.7322,-4.8538 7.1201,-13.34778 -0.6597,-16.21368 -14.8953,-5.48698 -38.1028,14.17979 -37.075,28.49914 2.0959,29.2087 16.347,61.53821 44.2874,74.77664 7.5665,3.58492 16.344,5.04727 24.6883,4.4503 70.5811,-5.04913 24.7702,-79.15383 51.6219,-111.91183 15.7115,-19.16702 39.7153,1.31709 41.8182,20.3852 1.6104,14.59704 -10.9205,27.13156 -16.2896,39.82032 m -398.0969,-88.82993 c 0,170.75034 -181.6861,285.3654 -311.6884,370.63534 18.2777,-25.22328 47.4045,-44.83714 70.9785,-65.18773 47.5811,-41.07502 95.5469,-81.91483 138.5951,-127.78772 31.202,-33.24954 62.0103,-71.64447 80.9294,-113.33477 9.383,-20.6767 11.5301,-44.38917 21.1854,-64.32512 m -694.35517,263.42677 15.4301,3.0631 c 43.43,-96.76646 104.0031,-177.8379 206.7635,-219.15595 37.5205,-15.08628 79.7665,-25.82754 120.355,-25.89224 19.50497,-0.0309 44.56267,6.74843 55.54837,-12.25238 -39.9343,-13.41843 -89.48327,-6.26214 -129.61297,3.4602 -116.5691,28.24136 -249.6727,124.3518 -268.484,250.77727 m -271.57,-245.04815 15.5324,36.75721 -15.5324,45.94655 c -37.0054,-10.58086 -73.8861,-33.60777 -107.9965,-51.32828 -7.13,-3.70402 -20.2948,-24.10064 -25.3478,-24.19038 -16.4384,-0.29219 -26.8797,45.58685 -24.043,57.14006 37.6408,-13.81054 98.6855,22.4918 129.3107,45.80703 10.4001,7.91782 9.0051,20.37082 21.9045,24.64429 16.5574,-39.47331 85.2238,-126.26323 6.1721,-134.77648 m 984.44127,3.06306 c 0,30.57573 1.6691,59.72604 -9.4603,88.83 -39.0853,102.20894 -169.8195,186.7279 -262.1096,238.92197 19.8737,-25.56169 54.5168,-44.12988 80.2366,-63.97068 46.2273,-35.66111 93.9446,-74.81475 131.2678,-119.81546 20.6854,-24.94005 39.6386,-54.41213 48.5048,-85.76689 5.2814,-18.67717 4.0547,-40.60889 11.5607,-58.19894 m 55.5482,42.88344 c -10.3943,32.1656 42.3974,91.24227 55.513,122.52409 34.0431,81.19653 50.2291,169.58902 40.309,257.30057 -2.9222,25.8341 -28.1985,93.8366 -3.241,110.2717 7.0198,-47.3555 22.4297,-92.4626 24.5668,-140.9027 5.6961,-129.12365 -38.9114,-244.04346 -110.9754,-349.19366 h -6.1724 m -33.9462,79.64068 c -11.3523,31.70376 21.3027,68.21999 32.6343,98.01928 20.5142,53.94509 31.0693,116.99535 26.7597,174.5968 -1.647,22.0169 -16.0691,66.5598 5.4126,79.6407 34.8805,-123.15229 -0.7926,-243.25793 -58.6343,-352.25678 h -6.1723 m -43.2042,67.3882 c -8.3054,35.0498 18.5644,80.95797 25.2932,116.39792 9.4011,49.5173 0.4183,94.75326 -0.6049,143.96586 26.1079,-2.0666 22.9884,-43.6904 24.412,-64.3251 4.7387,-68.68304 -16.8265,-133.72963 -42.9281,-196.03868 h -6.1722 M 258.59443,844.31525 c -40.8536,42.49626 -27.8088,76.44803 -27.7742,128.65031 h -3.086 c -4.5767,-25.09502 -26.339,-50.59856 -49.3764,-61.26204 0,26.03524 -2.6208,52.87311 10.5439,76.57513 12.9144,23.25135 38.4853,26.04145 38.8325,55.13825 h -3.0861 c -10.8451,-22.5605 -30.8537,-37.0544 -52.4624,-49.00959 -7.5224,25.98819 5.3261,63.69579 25.0121,82.05149 17.6308,16.4392 37.2755,15.9999 39.7944,43.5357 h -3.086 c -11.4681,-20.9859 -37.8491,-37.38 -61.7205,-39.8202 2.1282,25.8615 10.5043,54.0627 31.396,71.1744 20.3497,16.6677 45.0015,13.6683 51.9267,42.1604 -21.8037,-16.5013 -44.24,-25.4812 -70.9786,-30.6313 6.3852,26.6819 21.5889,55.3267 46.2904,69.3265 12.8655,7.2916 33.6019,5.7693 43.2233,17.4023 16.8442,20.3663 18.3166,63.3916 46.2713,72.5528 -2.3295,-26.3184 -28.7577,-54.1919 -26.5645,-79.6289 1.1382,-13.202 17.4767,-22.3761 23.4904,-33.7509 12.4273,-23.506 13.6983,-54.5105 6.1602,-79.5959 -24.7499,15.3765 -43.6688,37.7725 -46.2904,67.3883 h -3.086 c -5.4145,-36.5818 13.6822,-38.9716 28.0695,-70.4513 9.4567,-20.6916 8.9628,-42.1487 8.9628,-64.3251 -23.2873,11.7998 -47.6133,31.6268 -52.4624,58.1989 h -3.086 c -4.4574,-34.442 12.842,-29.9764 31.5127,-55.1809 14.5348,-19.6209 17.8479,-40.6201 17.8637,-64.2801 -23.9187,6.855 -46.3642,22.4315 -55.5485,45.9466 h -3.086 c 0.1102,-30.9644 20.8132,-31.2594 39.1039,-52.19567 14.9159,-17.07346 22.7039,-39.05416 25.7026,-61.13919 -25.5775,4.37142 -50.5159,19.05053 -61.7205,42.88341 h -3.086 c 1.9984,-42.6869 42.9185,-87.54538 12.3441,-131.7134 m 722.1294,3.06314 -3.086,3.06309 3.086,-3.06309 m 752.98977,0 -4.0719,73.51447 19.5018,55.13579 h -3.086 c -10.9627,-23.26881 -35.1122,-34.93326 -58.6343,-42.88341 -5.4281,36.29022 25.8349,79.33846 61.7203,85.76686 v 27.568 h -3.086 c -8.3236,-24.2352 -32.9693,-36.6131 -55.5485,-45.9466 0.1099,39.7043 15.2005,77.8979 55.5485,91.893 l -6.1719,27.568 h -3.0862 c -4.9802,-25.5502 -28.6953,-46.0122 -52.4623,-55.1357 0,40.4333 5.8664,80.9286 46.2904,101.0823 l -9.2582,30.6309 h -3.0861 c -1.4246,-27.2012 -21.7187,-52.9518 -46.2903,-64.325 -7.2708,24.4148 -5.1711,57.3358 7.8151,79.6288 5.8161,9.9844 20.7019,18.9224 21.8449,30.7635 2.2357,23.1576 -21.1275,53.6448 -26.5738,76.4566 l 3.0859,3.0635 h 6.1721 c 12.7613,-20.6961 21.5179,-58.9311 39.0349,-74.732 9.4273,-8.5037 26.7631,-6.4788 38.1158,-12.3894 26.1136,-13.5957 44.3333,-43.9912 49.3762,-72.1602 -25.5058,3.7391 -57.1264,13.84 -70.9784,36.7574 h -3.0862 c 10.9888,-33.4494 30.8421,-27.258 55.2604,-47.568 21.4126,-17.8102 30.5883,-48.1704 31.1483,-74.9562 -25.4344,10.5138 -51.6972,23.9438 -64.8066,49.0097 h -3.086 c 8.6276,-33.0014 27.3283,-32.0826 48.3596,-55.4218 17.9359,-19.9037 22.6018,-47.5541 22.6191,-73.22851 -23.9187,6.98601 -47.3791,25.15781 -55.5484,49.00971 h -3.0862 c 0.3586,-30.0972 27.1025,-36.835 40.3779,-61.26214 12.1698,-22.39221 8.9989,-48.98252 8.9989,-73.51444 -21.7121,15.18075 -41.879,35.48838 -49.3768,61.26204 h -3.0862 c 0.028,-42.40909 20.0575,-101.45366 -30.8598,-125.58717 m -756.07577,6.12617 -3.086,3.06314 3.086,-3.06314 m -9.2581,21.44173 -3.086,3.0631 3.086,-3.0631 m -499.9357,116.39795 c -2.6104,10.01396 -15.6529,53.07586 6.0767,50.64526 11.1309,-1.2454 20.6262,-15.816 27.8814,-23.0774 16.8414,-16.8555 34.2881,-32.34935 55.5365,-43.55236 106.0269,-55.90143 174.2238,28.33556 231.4518,107.87756 h 3.086 c 23.187,-34.482 -47.3601,-92.85467 -70.9785,-113.33481 38.7628,16.02292 74.8404,46.42261 95.6667,82.70371 20.2776,-10.2514 9.0695,-25.1517 -1.0716,-39.8203 -20.3354,-29.41432 -46.2159,-55.50545 -76.079,-75.47618 -72.5885,-48.543 -171.7085,-61.43761 -249.9679,-18.52277 -19.5212,10.7048 -59.7773,35.92095 -63.011,59.97165 -2.2881,17.01738 31.3018,12.5645 41.4089,12.58564 m 262.3119,-39.82038 v 3.0631 c -24.6729,-7.00097 -48.1372,-18.15484 -74.0646,-20.91002 -74.2122,-7.88623 -120.5984,37.37756 -175.9032,76.04586 6.3846,-30.71909 4.5214,-37.39402 -27.7743,-36.75724 70.7861,-87.07013 191.3243,-66.57329 277.7421,-21.4417 m 216.0216,3.0631 -3.086,3.06308 3.086,-3.06308 m -237.6237,6.1262 -3.086,3.06311 3.086,-3.06311 m 6.172,3.06311 6.1721,3.06309 v 3.06313 l -6.1721,-6.12622 m 367.23677,0 -6.1721,6.12622 6.1721,-6.12622 m -58.6345,21.44169 -6.172,6.12628 6.172,-6.12628 m -77.15057,3.06312 -3.086,3.06316 3.086,-3.06316 m -3.086,6.12623 -3.086,3.06308 3.086,-3.06308 m -49.3763,27.56799 52.4623,45.9463 v 3.0631 c -19.3396,-3.714 -55.4543,-26.7107 -52.4623,-49.0094 m -15.4302,15.3154 52.4624,45.9466 c -10.6405,27.2691 -36.5116,50.5249 -54.4697,73.5146 -42.8728,54.8851 -87.1445,109.135 -132.1228,162.3299 -19.2468,22.7632 -47.8909,29.1052 -68.2091,2.9452 -21.6549,-27.8813 11.8444,-59.9007 29.753,-79.5084 58.816,-64.3958 106.6856,-148.4547 172.5862,-205.2279 m -649.0935,8.1682 -1.0286,2.0423 1.0286,-2.0423 m 695.3839,114.3559 c -17.077,15.1698 -4.2981,28.0654 7.2507,42.8834 23.221,29.794 51.2275,57.6557 82.24387,79.52 92.0036,64.8558 215.4552,101.3433 327.1186,72.8078 55.0871,-14.0771 111.1007,-45.1006 120.3548,-106.3813 h 3.086 c -7.4792,93.273 -92.7313,133.4338 -175.9034,141.423 -143.4372,13.7773 -320.03027,-71.3121 -391.92477,-196.5586 h -6.1721 l -9.258,12.2522 v 3.0631 c 59.8029,74.797 153.11187,170.4737 256.13997,180.7229 -99.0193,139.4331 -303.58957,93.2578 -388.83897,-30.6308 -33.4544,26.3254 8.7093,77.5726 29.1291,101.0373 55.5515,63.8363 145.5536,86.9671 227.01087,72.2593 49.5954,-8.9543 97.0237,-32.8998 131.8179,-69.4251 13.9775,-14.6732 28.2219,-48.2911 45.2878,-57.5659 8.9934,-4.8875 23.2616,0.6284 32.7438,1.8294 23.3561,2.959 47.4184,5.6432 70.9785,3.4175 43.6186,-4.1198 89.326,-11.9729 126.5267,-36.5588 61.5625,-40.6854 90.8355,-128.1101 57.4799,-195.7167 -66.8124,-135.419 -271.4184,-51.616 -287.867,76.53 -1.5045,11.721 7.2861,22.3569 17.5945,11.2791 41.0715,-44.139 68.8921,-96.0681 138.7283,-96.9417 79.8034,-0.9982 129.6993,80.7577 64.8067,137.2155 -43.3436,37.7097 -115.0764,43.6407 -169.7315,37.8326 -129.2943,-13.7393 -232.0942,-81.8503 -308.60227,-184.2942 m 530.79617,73.5144 h -3.0862 c -3.4222,-14.6403 -8.6225,-27.6997 -18.2162,-39.5461 -60.4312,-74.6218 -145.6638,-36.3108 -210.1496,5.8521 43.9413,-65.9357 181.5123,-116.461 224.1699,-18.3787 7.2112,16.5803 7.2797,34.3669 7.2821,52.0727 m -1197.37717,-39.8201 -3.086,3.0629 3.086,-3.0629 m 401.183,134.7764 24.6882,21.4417 c -3.8329,14.6666 -17.4135,40.0822 -33.9558,43.6445 -31.5256,6.7889 -20.4651,-34.4606 -10.4273,-46.6935 5.957,-7.2595 12.0902,-12.9635 19.6949,-18.3927 m 503.02177,70.4513 c -74.1863,132.1326 -308.55167,175.8791 -388.83897,21.4419 90.1523,62.2916 182.6812,103.0491 290.08617,48.6765 36.3915,-18.4236 63.3374,-53.7256 98.7528,-70.1184 m -777.67787,14.8074 c -41.6475,3.8791 -30.6596,67.0314 9.2557,61.0232 37.8051,-5.6903 28.835,-64.5714 -9.2557,-61.0232 m 1218.98167,-0.6358 c -40.0065,6.4141 -30.2929,66.8255 9.2532,60.4865 39.3715,-6.3104 29.5488,-66.7077 -9.2532,-60.4865 m -1064.68047,83.8477 c -5.5699,47.2507 -42.2184,118.3765 -92.5807,134.7767 v 6.1258 c 35.2137,23.8497 70.799,63.192 117.2689,60.9407 56.4744,-2.7356 94.7697,-64.1954 75.4242,-116.0762 -13.1479,-35.2603 -64.8556,-74.1598 -100.1124,-85.767 m 814.71017,82.7035 c 33.4643,1.0806 82.3814,73.6513 93.6569,103.6256 2.9259,7.7777 0.2893,16.8668 2.0096,25.0246 36.1305,-13.8696 136.8195,-76.2202 77.1506,-113.3345 -3.2161,10.8002 -1.1694,23.5984 -6.2576,33.6943 -2.939,5.8311 -7.7044,10.6508 -12.3179,15.192 -43.3393,42.6646 -84.2102,-57.1563 -15.3706,-39.6967 2.6747,-14.3611 -7.9948,-35.9624 -22.3474,-42.3448 -14.9701,-6.6571 -13.1255,45.822 -38.8375,31.2195 -31.8301,-18.0776 -26.5607,-54.6134 8.7224,-62.9779 10.3244,-2.4474 21.1314,3.9614 30.8602,6.7145 l -18.516,-36.7571 c -29.0189,9.1946 -90.2691,49.8887 -98.7527,79.6405 m -779.75907,-34.5757 c 21.1761,-6.4802 37.5853,27.9229 38.823,43.7652 2.5941,33.2034 -22.2975,73.2541 -55.258,82.8811 -16.9297,4.9447 -56.5863,-0.6275 -56.327,-24.6941 0.252,-23.3969 39.3226,-60.8749 52.8053,-79.6287 5.0654,-7.0458 10.9797,-19.5762 19.9567,-22.3235 m 807.53337,157.1002 c -16.3987,38.8272 -57.6206,61.5789 -92.2571,27.246 -28.2204,-27.9729 -43.5093,-88.9664 -0.3213,-110.4417 15.7212,-7.817 61.1418,16.0405 59.3796,0.3095 -5.0162,-44.7855 -59.2903,-27.2631 -84.0679,-9.6524 -61.7228,43.87 -37.1537,159.0155 43.2019,162.8667 27.3806,1.3126 54.2923,-6.0311 72.4311,-27.7211 10.2049,-12.2027 22.4403,-35.752 1.6337,-42.607 M 690.63763,1597.8385 c -1.6843,10.8726 4.7023,19.8727 2.9479,30.6311 -5.0723,31.104 -25.1204,62.7119 -36.7084,91.893 -3.28,8.2597 -27.0506,28.5951 -25.6407,32.7584 3.7957,11.2062 33.8604,18.2033 43.9711,22.3443 35.0498,14.3545 83.4719,42.7675 89.4947,-15.2822 l -33.9463,14.3297 -49.3764,-14.3297 c 8.7404,-36.5252 37.06,-82.1915 58.6345,-24.5053 h 6.172 c 4.1773,-7.7853 24.1901,-41.7821 13.4347,-48.4822 -9.0703,-5.6505 -44.6853,18.529 -44.5186,-10.038 0.3535,-60.587 55.3252,-36.3204 68.1162,3.3846 h 6.1721 l 10.3581,-35.5518 -28.8743,-16.5208 -80.2366,-30.6311 m 450.55947,67.3881 c 39.8306,8.1739 56.3984,133.2452 6.1695,142.8998 -46.9544,9.0254 -52.0295,-53.1775 -57.3556,-84.7008 -3.082,-18.2409 -10.7203,-37.915 7.9816,-49.0094 -6.8716,-20.4843 -62.032,-8.351 -67.8923,9.1891 42.3903,14.7416 21.4783,100.2997 52.7957,131.3826 28.823,28.6067 91.9652,19.6868 108.651,-18.0595 16.6574,-37.6809 -5.9344,-81.2182 -8.6958,-119.4375 -0.6999,-9.6858 9.7321,-18.4949 7.9794,-26.8353 -3.3296,-15.8432 -46.0755,3.826 -49.6335,14.571 m -240.70987,-3.0632 c -2.136,14.0754 9.9388,20.1301 11.1154,33.706 2.6469,30.5386 -2.8871,67.2695 -5.2219,98.0076 -0.6917,9.1056 -17.8337,32.9365 -14.6086,38.1374 5.4546,8.797 42.0474,7.5234 51.9194,7.7641 47.0285,1.1467 75.95097,11.7939 77.15057,-45.9015 h -12.3441 c -6.9609,21.5762 -51.91507,50.1994 -66.03037,17.9272 -6.2683,-14.3316 -1.4306,-36.7024 0.3429,-51.6211 4.3492,-36.5881 2.2864,-57.9096 22.4832,-88.8304 z"
     id="path1-6"
     sodipodi:nodetypes="cscscccsccscsscsssssccscssccccsccsssssssssccccccccssccssccscscccccccccccsccccscssscccccccccccssssccsccccccccccsccccccccscsccccscscsssscssccssccscssccsssscccsccscccccccccccscscssccscccsssscscsccccccsssssscscscssccccccccscssccccsccsscccscssccsscssccscscccssccscscscsccccssscccsscsccccsccsccccccssccscccccccsccccccsccccccscccccccsccsscsccccscccscccsccccccccccccccccccccccccsscccsscccscccscccsccccccccccccssccccsssscccsccccccccccccccccccccccccccccccccssscccccssscccccccccccsscccsscssccccccsccccccssccccccsccccccccsccsccsccsssccccssssccssccssccsscccccccssccccccssccscssccssssccsscc"
     inkscape:label="mono" /><g
     inkscape:groupmode="layer"
     inkscape:label="Image"
     id="g1"><path
       d="m 1226.5064,516.55491 c -4.7643,0.1524 -9.5489,0.59154 -14.3379,1.33398 -74.416,11.53654 -123.1347,68.67726 -158.6875,130.36914 -60.91315,105.69778 -88.20735,230.29357 -151.00385,333.86524 -16.2624,26.82183 -45.1487,51.94023 -65.4942,76.58983 -51.8223,62.786 -105.4943,124.0587 -157.2675,186.8496 -18.1257,21.9826 -20.29417,44.5156 -33.83012,67.3887 -10.09783,17.0637 -29.66737,28.9554 -34.27539,49.0098 -5.65955,24.6304 9.14919,49.0202 35.8164,48.8925 27.81641,-0.1349 36.36721,-28.7782 53.89261,-44.8691 12.43,-11.4128 31.4859,-11.6115 44.8144,-23.0566 28.5434,-24.5106 50.2874,-59.4284 74.3594,-88.1758 56.8493,-67.8902 108.2636,-159.2968 178.7402,-213.1055 112.05075,-85.54996 267.33185,-147.05562 344.19335,-270.86523 22.7931,-36.71498 37.6319,-82.12225 31.375,-125.58789 -9.8978,-68.75995 -76.8302,-130.92466 -148.2949,-128.63867 z m 10.3496,15.30469 c -8.7196,10.05809 -27.7665,9.68058 -40.1172,14.94531 -22.9256,9.77279 -43.8918,26.26771 -61.709,43.375 -68.1986,65.48036 -115.1562,168.12198 -151.22655,254.11523 -4.606,-27.31979 30.00155,-79.38543 42.44145,-104.14453 48.309,-96.14767 91.3926,-193.32359 210.6113,-208.29101 z m 21.6035,15.3164 v 3.0625 c -111.2185,49.17661 -176.9134,161.66551 -234.1074,263.42578 -22.4932,40.02001 -47.47405,80.1748 -65.23825,122.52539 h -3.0859 c 13.6231,-46.9376 42.0342,-94.14556 64.04485,-137.83984 39.3388,-78.09358 83.0336,-179.649 161.2344,-226.89453 25.0636,-15.14239 49.5212,-17.73189 77.1523,-24.2793 z m 27.7734,12.25196 v 3.0625 c -74.1841,48.77237 -129.8442,121.82754 -181.1797,192.9746 -54.0614,74.92486 -106.71495,151.12254 -155.19715,229.73438 -0.3683,-34.30938 43.4694,-86.57359 60.41005,-116.39844 43.5437,-76.66057 87.5165,-151.78621 143.2696,-220.54297 32.8101,-40.46293 78.8512,-81.59783 132.6972,-88.83007 z m 21.6016,12.25195 c -13.8566,48.4501 -44.1562,88.91755 -74.4648,128.65039 -57.4035,75.25294 -124.1849,144.31691 -190.92,211.35351 -34.2004,34.35501 -63.53405,81.09768 -101.85145,110.27149 18.3776,-36.66759 47.0349,-70.02824 69.94915,-104.14453 54.2353,-80.74854 110.1939,-160.09097 171.3769,-235.85938 31.8705,-39.4683 73.9813,-97.24821 125.9102,-110.27148 z m 12.3437,15.3164 c 0,138.8415 -139.0422,241.87129 -234.5371,325.16211 -37.5113,32.71747 -73.5177,72.17445 -114.18355,100.60748 34.77875,-59.71933 100.63155,-108.96408 147.85355,-159.2813 79.1784,-84.36801 145.5736,-165.66355 200.8671,-266.48829 z m 18.5176,27.56641 c 0,170.75034 -181.6871,285.36678 -311.6894,370.63672 18.2777,-25.22328 47.4045,-44.83886 70.9785,-65.18945 47.5811,-41.07502 95.5475,-81.91422 138.5957,-127.78711 31.202,-33.24954 62.0106,-71.64369 80.9297,-113.33399 9.383,-20.6767 11.5302,-44.39022 21.1855,-64.32617 z m 18.5157,21.44141 c 0,30.57573 1.6684,59.72612 -9.461,88.83008 -39.0853,102.20894 -169.8193,186.7278 -262.1094,238.92187 19.8737,-25.56169 54.5166,-44.1299 80.2364,-63.9707 46.2273,-35.66111 93.9443,-74.81375 131.2675,-119.81446 20.6854,-24.94005 39.6397,-54.41281 48.5059,-85.76757 5.2814,-18.67717 4.0545,-40.60917 11.5606,-58.19922 z m -462.90425,385.95117 52.4628,45.9473 v 3.0625 c -19.3396,-3.714 -55.4547,-26.7111 -52.4628,-49.0098 z m -15.4297,15.3164 52.4629,45.9453 c -10.6405,27.2691 -36.5127,50.5259 -54.4707,73.5156 -42.8728,54.8851 -87.1428,109.1352 -132.1211,162.3301 -19.2469,22.7632 -47.8928,29.1053 -68.211,2.9453 -21.65494,-27.8813 11.8454,-59.9001 29.7539,-79.5078 58.8161,-64.3958 106.6854,-148.4553 172.586,-205.2285 z m -219.10746,290.9942 24.68746,21.4414 c -3.8329,14.6666 -17.4127,40.0822 -33.95503,43.6445 -31.52562,6.7889 -20.4655,-34.4605 -10.42774,-46.6934 5.95695,-7.2595 12.09064,-12.9633 19.69531,-18.3925 z"
       style="display:inline;fill:#42221a;fill-opacity:1;stroke-width:2.30591"
       id="path2"
       inkscape:label="Fouet" /><path
       style="display:inline;fill:#42221a;stroke:none;stroke-width:2.30591"
       d="M 949.86358,0.19893998 C 893.0932,4.2003934 834.31945,9.5761621 777.04624,23.049367 585.71096,68.060004 405.63977,168.09971 271.21469,311.33547 -104.11446,711.26475 -90.999815,1358.6967 317.50502,1731.7853 c 124.0294,113.2762 270.29385,190.3204 431.76704,235.7995 121.23666,34.147 251.99324,39.4976 376.49494,24.519 462.1974,-55.6048 852.7584,-463.3531 873.2226,-927.245 C 2019.3324,603.74077 1730.8626,173.82398 1280.0679,39.577323 1178.2137,9.2450535 1060.7215,-1.6512858 949.86358,0.19893998 M 974.55175,55.807414 c 116.77865,-4.971185 235.99835,16.463062 345.63445,56.263386 108.2479,39.2963 209.9338,98.57509 296.2585,174.60618 288.8642,254.41845 402.7674,666.44629 272.5198,1029.35602 -40.0797,111.6752 -103.7404,213.4427 -181.2609,303.2471 -69.4506,80.4561 -156.17,148.3443 -248.6461,200.8551 -140.9621,80.0435 -295.5996,116.9668 -456.7315,123.7133 -114.3073,4.786 -237.04211,-24.4922 -342.54862,-66.0457 C 548.63592,1834.0295 444.97723,1770.4802 357.34712,1689.4573 -8.1188411,1351.5476 -45.29638,775.50146 274.27454,394.03924 348.69011,305.2117 440.78666,229.4272 542.50852,173.0681 675.83715,99.19714 822.65814,62.273326 974.55175,55.807414 M 820.25061,225.5686 h 6.17202 c 11.63532,-21.54696 19.5276,-36.11519 46.29035,-36.75719 l 14.69913,122.47921 -11.61311,30.67586 67.89252,-12.2524 v -6.12622 c -33.06041,-16.51352 -27.83467,-62.27722 -31.37221,-94.95613 -1.21685,-11.24154 -7.55917,-28.2075 -3.52177,-39.12076 10.21606,-27.6141 41.00866,6.22715 47.23803,17.67904 h 6.1721 c 3.35018,-11.57378 4.29872,-37.85916 -7.91268,-45.58721 -11.41014,-7.22085 -41.03639,2.68023 -53.80778,4.46698 -44.20444,6.18432 -97.89207,0.21249 -80.2366,59.49882 M 1014.67,170.43279 c 25.7509,14.46989 9.4556,105.26813 1.7479,131.57876 -2.7039,9.22971 -8.7298,12.43433 -17.17795,15.45013 5.24335,15.68157 19.87125,11.44193 33.94625,12.77231 29.3655,2.77577 60.827,4.95493 89.4947,11.73249 l 9.2581,-45.94653 -27.8193,20.89339 -55.5032,-2.51478 6.1719,-61.26201 52.4622,24.50479 c 1.989,-15.61951 12.7024,-45.79361 -6.172,-52.07274 -10.6202,18.055 -24.8889,13.03094 -43.2042,12.25242 0.1124,-13.52354 -1.4726,-39.68087 6.2577,-51.09663 17.7111,-26.15453 53.532,12.15276 61.6349,26.59181 h 6.172 c 15.4277,-50.39519 -21.9389,-44.74366 -61.7207,-49.87226 -16.4168,-2.11635 -49.0428,-12.45094 -55.5483,6.98885 m 185.1614,15.31548 c 13.2984,53.31584 -22.9884,97.186 -30.8601,150.09203 -10.523,0.80408 -15.1251,2.07892 -18.5163,12.2524 33.3349,7.65476 73.9828,33.01752 107.8775,32.59741 17.7461,-0.21984 27.47,-27.73617 24.8215,-41.78671 -10.4237,5.33781 -19.6203,15.57857 -30.8602,18.88451 -12.4563,3.66379 -43.2588,-4.67655 -45.926,-19.2059 -1.8605,-10.13363 4.7595,-23.88672 7.8745,-33.37276 7.8764,-23.98525 15.5209,-92.3928 47.3097,-88.82995 l 3.0859,-12.2524 -64.8065,-18.37863 m -518.45187,217.48029 49.37641,-15.31552 -18.51616,-12.2524 v -42.88346 c 26.19974,-4.4748 87.42735,-22.47298 67.89253,30.63103 l 3.086,3.06311 61.72047,-21.44172 v -6.1262 c -39.01097,-15.75784 -66.53305,-57.69811 -93.41653,-88.82999 -10.10876,-11.70628 -24.89716,-36.77253 -42.23277,-37.36706 -19.40586,-0.66557 -15.52354,28.09012 -15.56351,40.4302 -0.11992,37.0064 4.148,76.654 -0.89768,113.33477 -1.81576,13.20046 -9.43787,23.85587 -11.44876,36.75724 M 1366.4767,247.01033 c -6.6588,40.24319 -19.2778,70.17542 -41.3422,107.20855 -8.7695,14.71914 -13.2307,31.25214 -32.7223,30.63105 -3.1863,21.2228 37.6384,36.39246 55.5485,39.82032 l -9.2582,-18.3786 c 16.7855,-31.24502 43.7064,-121.23652 83.3226,-122.5241 -6.2331,-19.78716 -36.6854,-31.36369 -55.5484,-36.75722 m -651.15088,12.25238 37.03228,42.88347 -40.11832,15.3155 3.08604,-58.19897 m 654.23698,168.47065 c -2.9692,19.96065 23.0754,31.86588 37.0321,42.89519 31.9339,25.23545 62.2368,60.25531 89.4951,9.17755 -13.4152,-3.25378 -23.9027,4.28302 -37.0325,2.69664 -60.5171,-7.31131 -24.213,-53.08173 -6.1721,-79.27418 h 3.0862 l 24.6881,45.94652 33.9462,-39.82032 -52.4625,-18.37865 v -3.06307 c 11.9898,-9.68757 20.004,-30.03088 33.601,-36.68881 29.1761,-14.28612 36.7807,44.86611 40.4634,58.13053 52.0083,-26.39237 -5.4193,-62.50665 -30.86,-81.55754 -8.4198,-6.30496 -22.163,-21.52211 -33.3558,-21.54099 -7.6082,-0.0136 -8.4306,25.97766 -13.1154,32.64717 -17.5276,24.95071 -55.7421,92.50666 -89.3138,88.82996 M 530.16443,360.34511 c 8.75731,-60.34465 -71.35657,-20.60977 -85.1204,9.19175 -3.577,7.74507 -4.60547,16.04481 -4.22908,24.50238 2.92746,65.77408 71.75297,31.64938 107.86559,32.32559 10.12087,0.18946 19.90894,7.56297 23.84523,16.73132 14.12188,32.89287 -34.84272,41.44294 -54.69111,34.34419 -4.83851,-1.73046 -14.34142,-4.24298 -15.69927,3.35364 -2.79835,15.6554 20.76875,30.84847 34.2011,27.63184 27.27079,-6.53039 56.90023,-31.74509 63.17058,-59.25074 1.8601,-8.15973 1.52627,-16.4741 -0.80013,-24.50483 -19.96395,-68.91661 -82.48252,-3.92384 -120.66917,-25.05558 -23.18246,-12.8288 -7.47415,-40.93739 12.01071,-47.47322 13.62286,-4.56941 27.29492,4.56565 40.11595,8.20366 m 1077.02217,67.38825 c 0.3935,8.38746 1.4402,16.16338 -4.3436,23.08431 -19.8516,23.75439 -85.4341,83.29156 -116.0114,71.87187 -4.0452,21.7829 20.0033,43.12873 33.9463,58.19891 h 3.0861 l 43.2041,-58.19891 h 3.0863 c 16.3994,43.05729 -53.6872,98.11556 9.2581,128.65029 l 21.6019,-91.89306 c 9.1922,2.89221 18.0512,5.65262 27.7743,5.99157 90.6551,3.16092 28.3599,-123.74717 -21.6021,-137.70498 M 298.7127,534.94196 c 37.96905,-2.5333 125.29772,61.42319 123.44092,101.08234 16.50109,-2.76883 25.09636,-18.35056 35.14634,-30.63101 20.66172,-25.24725 82.55791,-87.55287 14.23003,-98.01928 1.5657,17.82224 9.37963,79.09644 -27.78606,73.75543 -15.76286,-2.26514 -31.59512,-23.61206 -46.27851,-30.87199 7.18279,-8.15989 14.21287,-19.27956 23.85236,-24.73889 4.95933,-2.80884 15.93378,-0.78784 18.29709,-7.029 4.48097,-11.83346 -24.9483,-27.63091 -32.89136,-32.55726 l -18.51615,52.07273 c -11.5056,-8.80849 -34.67481,-19.81816 -39.75637,-33.96818 -10.57365,-29.4431 40.41874,-39.54421 58.27252,-39.54626 -30.25591,-61.59165 -98.46212,35.65902 -108.01081,70.45137 M 1638.0469,473.6799 c 6.9202,13.12621 16.0418,27.52492 10.0508,42.83613 -13.5008,34.50534 -54.1487,20.52451 -65.5993,-6.07889 l 55.5485,-36.75724 m 98.7525,229.73265 3.0862,3.06313 c 10.1457,-2.8999 27.7711,-7.36239 33.7392,-16.84241 15.2944,-24.29466 -20.9941,-73.91527 -42.9999,-80.9972 -6.9099,-2.22368 -14.3422,-3.45929 -21.5996,-2.54562 -41.1244,5.17665 -40.0654,47.50799 -40.1183,78.9435 -0.024,15.10276 -0.4288,35.62148 -18.5637,40.8555 -38.8775,11.22081 -31.4864,-45.31892 -21.9354,-62.28299 2.7322,-4.8538 7.1201,-13.34778 -0.6597,-16.21368 -14.8953,-5.48698 -38.1028,14.17979 -37.075,28.49914 2.0959,29.2087 16.347,61.53821 44.2874,74.77664 7.5665,3.58492 16.344,5.04727 24.6883,4.4503 70.5811,-5.04913 24.7702,-79.15383 51.6219,-111.91183 15.7115,-19.16702 39.7153,1.31709 41.8182,20.3852 1.6104,14.59704 -10.9205,27.13156 -16.2896,39.82032 M 372.77726,632.96124 388.30974,669.71845 372.77726,715.665 c -37.00537,-10.58086 -73.8861,-33.60777 -107.99649,-51.32828 -7.12997,-3.70402 -20.2948,-24.10064 -25.34782,-24.19038 -16.43838,-0.29219 -26.8797,45.58685 -24.04293,57.14006 37.6408,-13.81054 98.68543,22.4918 129.31062,45.80703 10.40014,7.91782 9.00518,20.37082 21.90453,24.64429 16.55737,-39.47331 85.22382,-126.26323 6.17209,-134.77648 m 166.64519,863.79486 c -5.56982,47.2507 -42.21834,118.3765 -92.58064,134.7767 v 6.1258 c 35.21366,23.8497 70.79896,63.192 117.26886,60.9407 56.47447,-2.7356 94.76977,-64.1954 75.42422,-116.0762 -13.14789,-35.2603 -64.85558,-74.1598 -100.11244,-85.767 m 814.71025,82.7035 c 33.4643,1.0806 82.3814,73.6513 93.6569,103.6256 2.9259,7.7777 0.2893,16.8668 2.0096,25.0246 36.1305,-13.8696 136.8195,-76.2202 77.1506,-113.3345 -3.2161,10.8002 -1.1694,23.5984 -6.2576,33.6943 -2.939,5.8311 -7.7044,10.6508 -12.3179,15.192 -43.3393,42.6646 -84.2102,-57.1563 -15.3706,-39.6967 2.6747,-14.3611 -7.9948,-35.9624 -22.3474,-42.3448 -14.9701,-6.6571 -13.1255,45.822 -38.8375,31.2195 -31.8301,-18.0776 -26.5607,-54.6134 8.7224,-62.9779 10.3244,-2.4474 21.1314,3.9614 30.8602,6.7145 l -18.516,-36.7571 c -29.0189,9.1946 -90.2691,49.8887 -98.7527,79.6405 m -779.75908,-34.5757 c 21.17609,-6.4802 37.58528,27.9229 38.82297,43.7652 2.59405,33.2034 -22.29747,73.2541 -55.25798,82.8811 -16.92971,4.9447 -56.58632,-0.6275 -56.32707,-24.6941 0.25205,-23.3969 39.32268,-60.8749 52.80531,-79.6287 5.06546,-7.0458 10.97971,-19.5762 19.95677,-22.3235 m 807.53338,157.1002 c -16.3987,38.8272 -57.6206,61.5789 -92.2571,27.246 -28.2204,-27.9729 -43.5093,-88.9664 -0.3213,-110.4417 15.7212,-7.817 61.1418,16.0405 59.3796,0.3095 -5.0162,-44.7855 -59.2903,-27.2631 -84.0679,-9.6524 -61.7228,43.87 -37.1537,159.0155 43.2019,162.8667 27.3806,1.3126 54.2923,-6.0311 72.4311,-27.7211 10.2049,-12.2027 22.4403,-35.752 1.6337,-42.607 M 690.63761,1597.8385 c -1.68428,10.8726 4.70232,19.8727 2.94786,30.6311 -5.07231,31.104 -25.12038,62.7119 -36.70838,91.893 -3.27996,8.2597 -27.05063,28.5951 -25.6407,32.7584 3.79567,11.2062 33.86036,18.2033 43.9711,22.3443 35.04984,14.3545 83.47191,42.7675 89.49469,-15.2822 l -33.94624,14.3297 -49.37641,-14.3297 c 8.7404,-36.5252 37.05999,-82.1915 58.63444,-24.5053 h 6.17204 c 4.1773,-7.7853 24.1901,-41.7821 13.4347,-48.4822 -9.07032,-5.6505 -44.68536,18.529 -44.51864,-10.038 0.35348,-60.587 55.32518,-36.3204 68.11624,3.3846 h 6.17204 l 10.35816,-35.5518 -28.87428,-16.5208 -80.23662,-30.6311 m 450.55949,67.3881 c 39.8306,8.1739 56.3984,133.2452 6.1695,142.8998 -46.9544,9.0254 -52.0295,-53.1775 -57.3556,-84.7008 -3.082,-18.2409 -10.7203,-37.915 7.9816,-49.0094 -6.8716,-20.4843 -62.032,-8.351 -67.8923,9.1891 42.3903,14.7416 21.4783,100.2997 52.7957,131.3826 28.823,28.6067 91.9652,19.6868 108.651,-18.0595 16.6574,-37.6809 -5.9344,-81.2182 -8.6958,-119.4375 -0.6999,-9.6858 9.7321,-18.4949 7.9794,-26.8353 -3.3296,-15.8432 -46.0755,3.826 -49.6335,14.571 m -240.70989,-3.0632 c -2.13599,14.0754 9.93877,20.1301 11.11542,33.706 2.64684,30.5386 -2.88712,67.2695 -5.22197,98.0076 -0.69166,9.1056 -17.83364,32.9365 -14.6086,38.1374 5.45467,8.797 42.04745,7.5234 51.91946,7.7641 47.02849,1.1467 75.95098,11.7939 77.15058,-45.9015 h -12.3441 c -6.9609,21.5762 -51.91515,50.1994 -66.03043,17.9272 -6.26828,-14.3316 -1.43055,-36.7024 0.34288,-51.6211 4.34926,-36.5881 2.2864,-57.9096 22.4832,-88.8304 z"
       id="path1"
       sodipodi:nodetypes="cscscccsccscsscsssssccccccccssccssccscscccccccccccsccccscssscccccccccccssssccsccccccccccsccccccccscsccccscscsssscssccscccccccccccscscssccsccccccccssccscscscscccccsccsccccccsccsccsccsssccccssssccssccssccsscccccccssccccccssccscssccssssccsscc"
       inkscape:label="color" /><path
       d="m 956.03449,386.15147 c -122.1564,15.92764 -234.5577,49.07547 -333.2905,125.85198 -323.6631,251.68644 -318.0713,763.56595 27.7742,994.95505 54.3998,36.3964 115.4827,67.0356 178.9894,84.29 81.152,22.048 166.44661,28.2866 249.96791,17.9718 87.4672,-10.8017 172.4439,-42.371 246.8817,-88.9385 64.3237,-40.2404 121.1231,-91.2086 166.1666,-152.1744 186.5191,-252.4522 152.5501,-615.48221 -82.8437,-826.51769 -63.959,-57.34022 -140.627,-100.16195 -222.1939,-127.12811 -70.6019,-23.34098 -157.0488,-38.0113 -231.45171,-28.31013 m 21.6022,21.38266 c 65.88971,-5.54683 134.85761,8.43267 197.50541,27.18503 66.867,20.01524 130.3339,53.60445 185.1615,96.561 271.7471,212.90973 303.1635,607.56554 78.0197,864.39514 -42.2063,48.1457 -92.9179,87.9762 -148.9984,119.0331 -70.151,38.8493 -148.0354,65.7729 -228.3658,73.422 -81.22891,7.7354 -162.59711,0.055 -240.70961,-24.0624 -66.1641,-20.4299 -130.7102,-54.564 -185.1614,-96.9061 -323.3385,-251.4341 -292.8154,-754.84012 52.4624,-971.8756 88.6965,-55.75298 186.8547,-79.06185 290.0862,-87.75217 m -490.6777,485.79243 c 29.8106,-11.81435 32.4914,-64.68898 44.0806,-91.89308 28.5425,-67.00029 69.5584,-127.23371 122.5646,-177.53933 85.6506,-81.28664 207.8887,-135.01635 327.1185,-137.91533 43.19061,-1.05014 87.66231,3.78104 129.61301,14.12665 9.0966,2.24351 35.9075,13.25509 42.6615,2.52414 8.1894,-13.01204 -47.1539,-22.10467 -55.0057,-23.89015 -58.2468,-13.24531 -123.24831,-13.23112 -182.07531,-4.2166 -163.2765,25.01986 -303.8038,127.04675 -380.4976,271.77481 -23.5534,44.44749 -46.2597,96.18183 -48.4596,147.02889 m 80.2366,-24.50481 c 22.6209,-1.71141 23.8554,-18.69458 31.3079,-36.75725 12.3579,-29.95181 28.481,-59.25935 47.1952,-85.76683 65.9563,-93.42371 167.1158,-155.88674 279.4756,-177.65769 37.4671,-7.25975 76.42611,-8.1979 114.18291,-3.06538 16.7266,2.27378 34.1309,7.32407 40.1183,-12.2524 -216.27391,-40.44643 -465.38821,90.60231 -512.27991,315.49955 m 77.1506,9.18929 15.4301,3.0631 c 43.43,-96.76646 104.0031,-177.8379 206.7635,-219.15595 37.5205,-15.08628 79.7665,-25.82754 120.355,-25.89224 19.50501,-0.0309 44.56271,6.74843 55.54841,-12.25238 -39.9343,-13.41843 -89.48331,-6.26214 -129.61301,3.4602 -116.5691,28.24136 -249.6727,124.3518 -268.484,250.77727 M 1412.7657,678.90939 c -10.3943,32.1656 42.3974,91.24227 55.513,122.52409 34.0431,81.19653 50.2291,169.58902 40.309,257.30052 -2.9222,25.8341 -28.1985,93.8366 -3.241,110.2717 7.0198,-47.3555 22.4297,-92.4626 24.5668,-140.9027 5.6961,-129.1236 -38.9114,-244.04341 -110.9754,-349.19361 h -6.1724 m -33.9462,79.64068 c -11.3523,31.70376 21.3027,68.21999 32.6343,98.01928 20.5142,53.94509 31.0693,116.99535 26.7597,174.59675 -1.647,22.0169 -16.0691,66.5598 5.4126,79.6407 34.8805,-123.15226 -0.7926,-243.25788 -58.6343,-352.25673 h -6.1723 m -43.2042,67.3882 c -8.3054,35.0498 18.5644,80.95797 25.2932,116.39792 9.4011,49.51725 0.4183,94.75321 -0.6049,143.96581 26.1079,-2.0666 22.9884,-43.6904 24.412,-64.3251 4.7387,-68.68299 -16.8265,-133.72958 -42.9281,-196.03863 h -6.1722 M 468.44289,991.34584 c -2.6104,10.01396 -15.6529,53.07586 6.0767,50.64526 11.1309,-1.2454 20.6262,-15.816 27.8814,-23.0774 16.8414,-16.8555 34.2881,-32.34926 55.5365,-43.55231 106.0269,-55.90143 174.2238,28.33551 231.4518,107.87751 h 3.086 c 23.187,-34.482 -47.3601,-92.85466 -70.9785,-113.33476 38.7627,16.0229 74.8404,46.42256 95.6667,82.70366 20.2776,-10.2514 9.0695,-25.1517 -1.0716,-39.8203 -20.3354,-29.41426 -46.2159,-55.5054 -76.079,-75.47613 -72.5885,-48.543 -171.7085,-61.43761 -249.9679,-18.52277 -19.5212,10.7048 -59.7773,35.92095 -63.011,59.97165 -2.2881,17.01739 31.3018,12.56449 41.4089,12.58559 m 262.3119,-39.82033 v 3.0631 c -24.6729,-7.00097 -48.1373,-18.15484 -74.0646,-20.91002 -74.2122,-7.88623 -120.5984,37.37756 -175.9032,76.04581 6.3846,-30.71904 4.5214,-37.39397 -27.7743,-36.75719 70.7861,-87.07013 191.3243,-66.57329 277.7421,-21.4417 m -21.6022,9.1893 -3.0859,3.06311 3.0859,-3.06311 m 6.1721,3.06311 6.1721,3.06309 v 3.06313 l -6.1721,-6.12622 m 209.8496,196.03848 c -17.077,15.1698 -4.2981,28.0654 7.2507,42.8834 23.221,29.794 51.2275,57.6557 82.24391,79.52 92.0036,64.8558 215.4552,101.3433 327.1186,72.8078 55.0871,-14.0771 111.1007,-45.1006 120.3548,-106.3813 h 3.086 c -7.4792,93.273 -92.7313,133.4338 -175.9034,141.423 -143.4372,13.7773 -320.03031,-71.3121 -391.92481,-196.5586 h -6.1721 l -9.258,12.2522 v 3.0631 c 59.8029,74.797 153.11191,170.4737 256.14001,180.7229 -99.0193,139.4331 -303.58961,93.2578 -388.83901,-30.6308 -33.4544,26.3254 8.7093,77.5726 29.1291,101.0373 55.5515,63.8363 145.5536,86.9671 227.01091,72.2593 49.5954,-8.9543 97.0237,-32.8998 131.8179,-69.4251 13.9775,-14.6732 28.2219,-48.2911 45.2878,-57.5659 8.9934,-4.8875 23.2616,0.6284 32.7438,1.8294 23.3561,2.959 47.4184,5.6432 70.9785,3.4175 43.6186,-4.1198 89.326,-11.9729 126.5267,-36.5588 61.5625,-40.6854 90.8355,-128.1101 57.4799,-195.7167 -66.8124,-135.419 -271.4184,-51.616 -287.867,76.53 -1.5045,11.721 7.2861,22.3569 17.5945,11.2791 41.0715,-44.139 68.8921,-96.0681 138.7283,-96.9417 79.8034,-0.9982 129.6993,80.7577 64.8067,137.2155 -43.3436,37.7097 -115.0764,43.6407 -169.7315,37.8326 -129.2943,-13.7393 -232.0942,-81.8503 -308.60231,-184.2942 m 530.79621,73.5144 h -3.0862 c -3.4222,-14.6403 -8.6225,-27.6997 -18.2162,-39.5461 -60.4312,-74.6218 -145.6638,-36.3108 -210.1496,5.8521 43.9413,-65.9357 181.5123,-116.461 224.1699,-18.3787 7.2112,16.5803 7.2797,34.3669 7.2821,52.0727 m -293.1724,165.4076 c -74.1863,132.1326 -308.55171,175.8791 -388.83901,21.4419 90.1523,62.2916 182.6812,103.0491 290.08621,48.6765 36.3915,-18.4236 63.3374,-53.7256 98.7528,-70.1184"
       style="display:inline;fill:#b38f6c;fill-opacity:1;stroke:none;stroke-width:2.30591"
       id="path1-63" /><path
       d="M 959.1467,82.885557 C 897.9667,90.858954 837.3769,93.867854 777.0713,108.83215 593.079,154.48855 422.4031,259.11955 300.0927,403.21141 67.161263,677.62417 10.264634,1081.7046 173.0442,1404.8459 c 71.4488,141.836 180.0003,262.7745 310.855,353.1125 91.2046,62.9646 194.9822,106.8778 302.4302,133.5329 108.2849,26.8632 222.771,32.3282 333.2904,17.9039 311.0008,-40.5907 592.9292,-254.1616 719.47,-538.2433 59.7612,-134.1642 83.0472,-279.6865 76.6023,-425.7714 C 1898.5518,556.84288 1609.8767,216.88895 1236.8886,113.97985 1151.9053,90.532454 1047.4258,71.380457 959.1467,82.885557 m 18.5162,21.845893 c 117.9515,-2.6815 242.9349,17.0245 351.8064,63.4815 130.1136,55.5211 248.2435,134.5573 341.6558,241.12466 285.7299,325.96878 299.6317,838.30959 9.6698,1167.04219 -83.8059,95.0116 -182.0325,170.976 -295.777,227.4257 -115.8359,57.4879 -244.0737,87.9467 -373.409,91.0919 -109.7216,2.668 -221.6013,-20.0964 -324.0322,-58.0004 C 584.3731,1798.7069 489.4123,1740.9792 406.7486,1668.7479 32.050893,1341.3383 6.2522836,759.60741 339.38,394.02209 414.3057,311.79615 507.5275,243.57895 607.3401,194.16415 c 114.8223,-56.8455 242.4286,-86.5253 370.3228,-89.4327"
       style="display:inline;fill:#b38f6c;fill-opacity:1;stroke:none;stroke-width:2.30591"
       id="path1-2" /><path
       d="m 258.5911,844.3111 c -40.8536,42.49626 -27.8088,76.44803 -27.7742,128.65031 h -3.086 c -4.5767,-25.09502 -26.339,-50.59856 -49.3764,-61.26204 0,26.03524 -2.6208,52.87311 10.5439,76.57513 12.9144,23.2513 38.4853,26.0414 38.8325,55.1382 h -3.0861 c -10.8451,-22.5605 -30.8537,-37.0544 -52.4624,-49.00954 -7.5224,25.98814 5.3261,63.69574 25.0121,82.05144 17.6308,16.4392 37.2755,15.9999 39.7944,43.5357 h -3.086 c -11.4681,-20.9859 -37.8491,-37.38 -61.7205,-39.8202 2.1282,25.8615 10.5043,54.0627 31.396,71.1744 20.3497,16.6677 45.0015,13.6683 51.9267,42.1604 -21.8037,-16.5013 -44.24,-25.4812 -70.9786,-30.6313 6.3852,26.6819 21.5889,55.3267 46.2904,69.3265 12.8655,7.2916 33.6019,5.7693 43.2233,17.4023 16.8442,20.3663 18.3166,63.3916 46.2713,72.5528 -2.3295,-26.3184 -28.7577,-54.1919 -26.5645,-79.6289 1.1382,-13.202 17.4767,-22.3761 23.4904,-33.7509 12.4273,-23.506 13.6983,-54.5105 6.1602,-79.5959 -24.7499,15.3765 -43.6688,37.7725 -46.2904,67.3883 h -3.086 c -5.4145,-36.5818 13.6822,-38.9716 28.0695,-70.4513 9.4567,-20.6916 8.9627,-42.1487 8.9627,-64.3251 -23.2872,11.7998 -47.6132,31.6268 -52.4623,58.1989 h -3.086 c -4.4574,-34.442 12.842,-29.9764 31.5127,-55.1809 14.5348,-19.6209 17.8479,-40.6201 17.8637,-64.2801 -23.9187,6.855 -46.3642,22.4315 -55.5485,45.9466 h -3.086 c 0.1102,-30.9644 20.8132,-31.2594 39.1039,-52.19562 14.9159,-17.07346 22.7039,-39.05416 25.7025,-61.13919 -25.5774,4.37142 -50.5158,19.05053 -61.7204,42.88341 h -3.086 c 1.9984,-42.6869 42.9185,-87.54538 12.3441,-131.7134 m 1475.1192,3.06314 -4.0719,73.51447 19.5018,55.13579 h -3.086 c -10.9627,-23.26881 -35.1122,-34.93326 -58.6343,-42.88341 -5.4281,36.29022 25.8349,79.33841 61.7203,85.76681 v 27.568 h -3.086 c -8.3236,-24.2352 -32.9693,-36.6131 -55.5485,-45.9466 0.1099,39.7043 15.2005,77.8979 55.5485,91.893 l -6.1719,27.568 h -3.0862 c -4.9802,-25.5502 -28.6953,-46.0122 -52.4623,-55.1357 0,40.4333 5.8664,80.9286 46.2904,101.0823 l -9.2582,30.6309 h -3.0861 c -1.4246,-27.2012 -21.7187,-52.9518 -46.2903,-64.325 -7.2708,24.4148 -5.1711,57.3358 7.8151,79.6288 5.8161,9.9844 20.7019,18.9224 21.8449,30.7635 2.2357,23.1576 -21.1275,53.6448 -26.5738,76.4566 l 3.0859,3.0635 h 6.1721 c 12.7613,-20.6961 21.5179,-58.9311 39.0349,-74.732 9.4273,-8.5037 26.7631,-6.4788 38.1158,-12.3894 26.1136,-13.5957 44.3333,-43.9912 49.3762,-72.1602 -25.5058,3.7391 -57.1264,13.84 -70.9784,36.7574 h -3.0862 c 10.9888,-33.4494 30.8421,-27.258 55.2604,-47.568 21.4126,-17.8102 30.5883,-48.1704 31.1483,-74.9562 -25.4344,10.5138 -51.6972,23.9438 -64.8066,49.0097 h -3.086 c 8.6276,-33.0014 27.3283,-32.0826 48.3596,-55.4218 17.9359,-19.9037 22.6018,-47.5541 22.6191,-73.22846 -23.9187,6.98596 -47.3791,25.15776 -55.5484,49.00966 h -3.0862 c 0.3586,-30.0972 27.1025,-36.835 40.3779,-61.26209 12.1698,-22.39221 8.9989,-48.98252 8.9989,-73.51444 -21.7121,15.18075 -41.879,35.48838 -49.3768,61.26204 h -3.0862 c 0.028,-42.40909 20.0575,-101.45366 -30.8598,-125.58717 m -1503.9221,198.08046 -1.0286,2.0423 1.0286,-2.0423 m 28.8029,148.0502 -3.086,3.0629 3.086,-3.0629 M 385.118,1413.54 c -41.6475,3.8791 -30.6596,67.0314 9.2557,61.0232 37.8051,-5.6903 28.835,-64.5714 -9.2557,-61.0232 m 1218.9817,-0.6358 c -40.0065,6.4141 -30.2929,66.8255 9.2532,60.4865 39.3715,-6.3104 29.5488,-66.7077 -9.2532,-60.4865"
       style="display:inline;fill:#b38f6c;fill-opacity:1;stroke:none;stroke-width:2.30591"
       id="path1-7" /></g></svg>
